# AST/ASF file generated using VICON BodyLanguage
# -----------------------------------------------
:version 1.10
:name VICON
:units
  mass 1.0
  length 0.45
  angle deg
:documentation
   .ast/.asf automatically generated from VICON data using
   VICON BodyBuilder and BodyLanguage model FoxedUp or BRILLIANT.MOD
:root
   order TX TY TZ RX RY RZ
   axis XYZ
   position 0 0 0  
   orientation 0 0 0 
:bonedata
  begin
     id 1 
     name lhipjoint
     direction 0.611804 -0.747784 0.257906 
     length 2.29243 
     axis 0 0 0  XYZ
  end
  begin
     id 2 
     name lfemur
     direction 0.34202 -0.939693 0  
     length 7.31159  
     axis 0 0 20  XYZ
    dof rx ry rz
    limits (-160.0 20.0)
           (-70.0 70.0)
           (-60.0 70.0)
  end
  begin
     id 3 
     name ltibia
     direction 0.34202 -0.939693 0   
     length 7.33391   
     axis 0 0 20   XYZ
    dof rx
    limits (-10.0 170.0)
  end
  begin
     id 4 
     name lfoot
     direction 0.122263 -0.335914 0.933924   
     length 1.76083   
     axis -90 7.62852e-016 20   XYZ
    dof rx rz
    limits (-45.0 90.0)
           (-70.0 20.0)
  end
  begin
     id 5 
     name ltoes
     direction 1.53533e-011 -4.2177e-011 1   
     length 0.879206   
     axis -90 7.62852e-016 20   XYZ
    dof rx
    limits (-90.0 20.0)
  end
  begin
     id 6 
     name rhipjoint
     direction -0.646469 -0.721248 0.248754   
     length 2.37677  
     axis 0 0 0  XYZ 
  end
  begin
     id 7 
     name rfemur
     direction -0.34202 -0.939693 0   
     length 7.18623   
     axis 0 0 -20   XYZ
    dof rx ry rz
    limits (-160.0 20.0)
           (-70.0 70.0)
           (-70.0 60.0)
  end
  begin
     id 8 
     name rtibia
     direction -0.34202 -0.939693 0   
     length 7.36567   
     axis 0 0 -20   XYZ
    dof rx
    limits (-10.0 170.0)
 end
 begin
     id 9 
     name rfoot
     direction -0.126681 -0.348054 0.928876   
     length 1.71902  
     axis -90 -7.62852e-016 -20   XYZ
    dof rx rz
    limits (-45.0 90.0)
           (-20.0 70.0)
  end
  begin
     id 10 
     name rtoes
     direction -1.53551e-011 -4.21898e-011 1   
     length 0.857792   
     axis -90 -7.62852e-016 -20   XYZ
    dof rx
    limits (-90.0 20.0)
  end
  begin
     id 11 
     name lowerback
     direction 0.0106509 0.999778 0.0181844   
     length 2.07668   
     axis 0 0 0   XYZ
    dof rx ry rz
    limits (-20.0 45.0)
           (-30.0 30.0)
           (-30.0 30.0)
  end
  begin
     id 12 
     name upperback
     direction -0.00456018 0.999989 -0.000590935   
     length 2.08011   
     axis 0 0 0   XYZ
    dof rx ry rz
    limits (-20.0 45.0)
           (-30.0 30.0)
           (-30.0 30.0)
  end
  begin
     id 13 
     name thorax
     direction -0.00910382 0.999916 -0.00923765   
     length 2.07397   
     axis 0 0 0   XYZ
    dof rx ry rz
    limits (-20.0 45.0)
           (-30.0 30.0)
           (-30.0 30.0)
  end
  begin
     id 14 
     name lowerneck
     direction 0.00171967 0.99778 0.0665733   
     length 1.67556   
     axis 0 0 0   XYZ
    dof rx ry rz
    limits (-20.0 45.0)
           (-30.0 30.0)
           (-30.0 30.0)
  end
  begin
     id 15 
     name upperneck
     direction -0.0143166 0.991302 -0.130828   
     length 1.68462   
     axis 0 0 0   XYZ
    dof rx ry rz
    limits (-20.0 45.0)
           (-30.0 30.0)
           (-30.0 30.0)
  end
  begin
     id 16
     name head
     direction -0.00606378 0.998665 -0.0512995  
     length 1.69269  
     axis 0 0 0   XYZ
    dof rx ry rz
    limits (-20.0 45.0)
           (-30.0 30.0)
           (-30.0 30.0)
  end
  begin
     id 17 
     name lclavicle
     direction 0.9638 0.179341 0.197297  
     length 4.12888  
     axis 0 0 0   XYZ
    dof ry rz
    limits (-20.0 10.0)
           (0.0 20.0)
  end
  begin
     id 18 
     name lhumerus
     direction 1 -4.48972e-011 -2.47351e-027   
     length 5.01834   
     axis -180 -30 -90   XYZ
    dof rx ry rz
    limits (-60.0 90.0)
           (-90.0 90.0)
           (-90.0 90.0)
  end
  begin
     id 19
     name lradius
     direction 1 -4.48965e-011 1.51591e-026   
     length 3.4869   
     axis -180 -30 -90   XYZ
    dof rx
    limits (-10.0 170.0)
  end
  begin
     id 20
     name lwrist
     direction 1 -4.48957e-011 2.70032e-026   
     length 1.74345   
     axis -1.81515e-014 90 90   XYZ
    dof ry
    limits (-180.0 0.0)
 end
  begin
     id 21 
     name lhand
     direction 1 -4.48951e-011 5.40064e-026   
     length 0.76799   
     axis -3.44607e-014 90 90   XYZ
    dof rx rz
    limits (-90.0 90.0)
           (-45.0 45.0)
  end
  begin
     id 22 
     name lfingers
     direction 1 -4.48971e-011 1.08013e-025   
     length 0.619174   
     axis -6.89214e-014 90 90   XYZ
    dof rx
    limits (0.0 90.0)
  end
  begin
     id 23
     name lthumb
     direction 0.707107 -6.34931e-011 0.707107   
     length 0.889013   
     axis -90 45 2.85299e-015   XYZ
    dof rx rz
    limits (-45.0 45.0)
           (-45.0 45.0)
  end
  begin
     id 24 
     name rclavicle
     direction -0.961409 0.252588 0.109054   
     length 4.04305  
     axis 0 0 0   XYZ 
    dof ry rz
    limits (-10.0 20.0)
           (-20.0 0.0)
  end
  begin
     id 25 
     name rhumerus
     direction -1 -4.4897e-011 1.33872e-017  
     length 4.70164   
     axis -180 30 90   XYZ
    dof rx ry rz
    limits (-90.0 60.0)
           (-90.0 90.0)
           (-90.0 90.0)
  end
  begin
     id 26 
     name rradius
     direction -1 -4.48954e-011 1.83844e-026   
     length 3.49911   
     axis -180 30 90   XYZ
    dof rx
    limits (-10.0 170.0)
  end
  begin
     id 27 
     name rwrist
     direction -1 -4.49008e-011 2.70032e-026   
     length 1.74955   
     axis -1.81515e-014 -90 -90   XYZ
    dof ry
    limits (-180.0 0.0)
  end
  begin
     id 28
     name rhand
     direction -1 -4.48916e-011 5.40064e-026   
     length 0.739335   
     axis -3.44607e-014 -90 -90   XYZ
    dof rx rz
    limits (-90.0 90.0)
           (-45.0 45.0)
  end
  begin
     id 29
     name rfingers
     direction -1 -4.48987e-011 1.08013e-025   
     length 0.596071   
     axis -6.89214e-014 -90 -90   XYZ
    dof rx
    limits (0.0 90.0)
  end
  begin
     id 30
     name rthumb
     direction -0.707107 -6.34935e-011 0.707107   
     length 0.855843   
     axis -90 -45 -2.85299e-015   XYZ
    dof rx rz
    limits (-45.0 45.0)
           (-45.0 45.0)
  end
:hierarchy
  begin
    root lhipjoint rhipjoint lowerback
    lhipjoint lfemur
    lfemur ltibia
    ltibia lfoot
    lfoot ltoes
    rhipjoint rfemur
    rfemur rtibia
    rtibia rfoot
    rfoot rtoes
    lowerback upperback
    upperback thorax
    thorax lowerneck lclavicle rclavicle
    lowerneck upperneck
    upperneck head
    lclavicle lhumerus
    lhumerus lradius
    lradius lwrist
    lwrist lhand lthumb
    lhand lfingers
    rclavicle rhumerus
    rhumerus rradius
    rradius rwrist
    rwrist rhand rthumb
    rhand rfingers
  end

#!OML:ASF I:\salsa\salsa 7_09\Patient 1\Session 1\dancermale.ASF
:FULLY-SPECIFIED
:DEGREES
1176
root 3.01735 16.8434 1.77906 -1606.61 -112.83 1249.41
lowerback 175.674 -178.059 -175.175
upperback -0.663388 -2.85265 1.25115
thorax 1.57046 -1.40853 -1.56996
lowerneck -7.3851 0.210594 1.42224
upperneck 14.9387 1.02907 -7.16747
head 5.7657 -0.00805874 -2.428
rclavicle 1.08128e-015 9.93923e-016
rhumerus -52.1793 12.6071 -97.1129
rradius 77.6122
rwrist 26.8528
rhand -11.7233 2.81676
rfingers 7.12502
rthumb 14.3236 -26.6692
lclavicle 1.08128e-015 9.93923e-016
lhumerus -8.35425 -33.7556 63.1788
lradius 92.5993
lwrist 4.19417
lhand -13.9886 63.9894
lfingers 7.12502
lthumb 12.1401 -453.617
rfemur -19.9498 3.3191 25.4227
rtibia 36.9791
rfoot -21.7393 -12.7418
rtoes -0.319004
lfemur -43.8481 23.1019 -15.4923
ltibia 57.4942
lfoot -9.03397 6.27488
ltoes 7.57604
1177
root 2.93519 16.8427 1.79914 -1607.87 -114.225 1250.6
lowerback 175.629 -177.994 -175.371
upperback -0.613954 -2.92899 1.09792
thorax 1.64321 -1.44391 -1.62529
lowerneck -7.54165 -0.165112 1.22287
upperneck 15.0804 0.528962 -6.99717
head 5.81389 -0.253972 -2.37858
rclavicle -2.9284e-014 -8.49804e-015
rhumerus -51.8813 12.2017 -97.0311
rradius 77.7647
rwrist 26.5307
rhand -12.7278 2.09669
rfingers 7.12502
rthumb 13.3556 -27.4553
lclavicle -2.9284e-014 -8.49804e-015
lhumerus -6.29686 -32.8804 62.9377
lradius 88.5288
lwrist 1.62329
lhand -14.9122 62.8105
lfingers 7.12502
lthumb 11.2495 -452.489
rfemur -19.4215 2.28027 25.171
rtibia 37.0314
rfoot -22.1649 -13.1437
rtoes 0.385767
lfemur -44.1949 23.7982 -16.8744
ltibia 54.5811
lfoot -7.59337 7.92739
ltoes 8.38936
1178
root 2.85548 16.8425 1.8271 -1609.07 -115.574 1251.62
lowerback 175.735 -177.923 -175.589
upperback -0.581948 -3.00332 0.974046
thorax 1.6172 -1.48121 -1.63108
lowerneck -7.57373 -0.532793 1.03821
upperneck 15.144 0.0316947 -6.82087
head 5.81805 -0.493273 -2.32804
rclavicle 2.23828e-014 3.67752e-015
rhumerus -51.6495 11.9113 -96.9756
rradius 77.8933
rwrist 25.9377
rhand -13.7709 1.54345
rfingers 7.12502
rthumb 12.35 -28.0718
lclavicle 2.23828e-014 3.67752e-015
lhumerus -4.3048 -31.847 63.0272
lradius 84.7011
lwrist -0.664243
lhand -16.0765 61.353
lfingers 7.12502
lthumb 10.1264 -451.089
rfemur -18.8213 1.36317 24.8626
rtibia 37.1731
rfoot -22.8548 -13.3398
rtoes 2.584
lfemur -44.2883 24.7951 -18.3091
ltibia 52.1184
lfoot -4.72225 9.42092
ltoes 17.5849
1179
root 2.77814 16.8417 1.86413 -1610.11 -116.844 1252.45
lowerback 175.828 -177.855 -175.788
upperback -0.539574 -3.07693 0.884952
thorax 1.60933 -1.51779 -1.61224
lowerneck -7.52389 -0.865591 0.888275
upperneck 15.1641 -0.425881 -6.64513
head 5.79764 -0.709277 -2.27926
rclavicle -3.33068e-014 1.32627e-014
rhumerus -51.411 11.7653 -96.9567
rradius 77.9814
rwrist 25.1972
rhand -14.6686 1.27303
rfingers 7.12502
rthumb 11.4844 -28.3924
lclavicle -3.33068e-014 1.32627e-014
lhumerus -2.38904 -30.5337 63.4477
lradius 81.1287
lwrist -3.40405
lhand -17.4076 59.6655
lfingers 7.12502
lthumb 8.84207 -630.54
rfemur -18.2533 0.492253 24.5732
rtibia 37.4463
rfoot -23.4405 -13.6724
rtoes 3.81066
lfemur -44.2102 25.949 -19.7519
ltibia 49.9591
lfoot -1.31672 10.5782
ltoes 20.277
1180
root 2.70093 16.8392 1.90662 -1610.93 -118.079 1253.1
lowerback 175.772 -177.749 -175.982
upperback -0.468475 -3.21356 0.842119
thorax 1.71409 -1.58348 -1.55954
lowerneck -7.52152 -1.12342 0.638853
upperneck 15.2304 -0.778347 -6.38501
head 5.80696 -0.875619 -2.18095
rclavicle -3.47642e-014 1.51698e-014
rhumerus -51.1452 11.8066 -97.0076
rradius 78.0707
rwrist 24.6638
rhand -15.3963 1.42536
rfingers 7.12502
rthumb 10.7825 -28.2779
lclavicle -3.47642e-014 1.51698e-014
lhumerus -0.56349 -28.9199 64.1351
lradius 77.824
lwrist -6.50522
lhand -18.4863 57.824
lfingers 7.12502
lthumb 7.80099 -632.34
rfemur -17.81 -0.266541 24.3619
rtibia 37.8921
rfoot -23.8288 -14.312
rtoes 3.58124
lfemur -43.6821 26.661 -20.7445
ltibia 48.3263
lfoot 0.257288 12.4719
ltoes 26.882
1181
root 2.64886 16.8444 1.93782 -1610.35 -119.112 1252.51
lowerback 175.84 -177.73 -175.63
upperback -0.619376 -3.25047 0.966883
thorax 1.50699 -1.60727 -1.6212
lowerneck -7.43969 -1.36595 0.406886
upperneck 15.2976 -1.10901 -6.16588
head 5.80503 -1.03298 -2.09624
rclavicle -2.67408e-014 -2.85132e-015
rhumerus -51.1205 11.9775 -97.2234
rradius 78.3821
rwrist 24.2008
rhand -16.1227 1.14925
rfingers 7.12502
rthumb 10.0817 -28.5892
lclavicle -2.67408e-014 -2.85132e-015
lhumerus 1.06039 -27.3258 65.0594
lradius 74.8974
lwrist -9.52906
lhand -19.0905 55.7282
lfingers 7.12502
lthumb 7.21778 -634.415
rfemur -18.1104 -0.613496 24.8694
rtibia 38.8709
rfoot -23.9234 -15.3729
rtoes 1.32874
lfemur -43.3474 27.3264 -21.0889
ltibia 46.965
lfoot 1.59986 10.9257
ltoes 29.769
1182
root 2.58401 16.835 1.98517 -1611.73 -120.308 1253.51
lowerback 176.256 -177.544 -176.078
upperback -0.638543 -3.45259 0.892868
thorax 1.26392 -1.71459 -1.43621
lowerneck -7.2897 -1.61265 0.224792
upperneck 15.3801 -1.44254 -6.02808
head 5.79622 -1.19517 -2.04503
rclavicle 2.64126e-014 -1.20637e-014
rhumerus -51.2766 12.3652 -97.577
rradius 78.8501
rwrist 23.6389
rhand -17.2248 -0.315497
rfingers 7.12502
rthumb 9.01842 -30.1027
lclavicle 2.64126e-014 -1.20637e-014
lhumerus 2.51529 -25.8831 66.1678
lradius 72.3244
lwrist -12.3635
lhand -20.0138 53.8269
lfingers 7.12502
lthumb 6.32645 -636.288
rfemur -17.9811 -2.0543 24.3312
rtibia 40.3204
rfoot -23.8884 -15.9876
rtoes -2.92658
lfemur -41.8733 27.5293 -22.0181
ltibia 45.5262
lfoot 1.19029 9.97841
ltoes 18.0913
1183
root 2.51375 16.8026 2.05377 -1613.3 -121.625 1255.02
lowerback 176.181 -177.299 -176.629
upperback -0.659435 -3.75536 0.694647
thorax 1.29034 -1.86668 -1.34907
lowerneck -7.26926 -1.85123 0.0715556
upperneck 15.6021 -1.75999 -5.90725
head 5.8548 -1.35404 -2.0069
rclavicle -1.2017e-014 -1.41634e-015
rhumerus -51.2687 12.7797 -97.8975
rradius 79.1284
rwrist 22.8525
rhand -17.6125 -0.144842
rfingers 7.12502
rthumb 8.64429 -29.9479
lclavicle -1.2017e-014 -1.41634e-015
lhumerus 4.004 -24.6051 67.2575
lradius 69.92
lwrist -15.1853
lhand -21.1405 52.3023
lfingers 7.12502
lthumb 5.23869 -637.782
rfemur -18.1326 -3.79716 23.297
rtibia 42.009
rfoot -23.802 -16.0739
rtoes -6.25669
lfemur -39.7336 26.0047 -22.3014
ltibia 43.6776
lfoot -0.510154 8.58576
ltoes 10.994
1184
root 2.46034 16.7768 2.11503 -1613.43 -122.977 1255.26
lowerback 175.93 -177.085 -176.456
upperback -0.783165 -4.05503 0.648415
thorax 1.27395 -2.01758 -1.51445
lowerneck -7.4531 -2.08073 -0.0984753
upperneck 16.0513 -2.05192 -5.78942
head 6.02244 -1.50909 -1.97285
rclavicle 8.73954e-015 4.5969e-015
rhumerus -51.1165 13.0968 -98.1884
rradius 79.2684
rwrist 21.9927
rhand -17.2999 1.64017
rfingers 7.12502
rthumb 8.94592 -28.1502
lclavicle 8.73954e-015 4.5969e-015
lhumerus 5.55654 -23.402 68.4026
lradius 67.4521
lwrist -18.1612
lhand -21.9627 50.5915
lfingers 7.12502
lthumb 4.44475 -639.475
rfemur -18.9683 -5.44808 22.9848
rtibia 44.2381
rfoot -23.5997 -15.8584
rtoes -8.8316
lfemur -37.9465 23.607 -21.6381
ltibia 41.7049
lfoot -2.3426 7.45921
ltoes 4.5599
1185
root 2.41593 16.7567 2.16906 -1613.82 -124.37 1255.8
lowerback 175.696 -176.817 -176.543
upperback -0.882379 -4.41494 0.598374
thorax 1.28667 -2.19857 -1.54418
lowerneck -7.67521 -2.28452 -0.436413
upperneck 16.4901 -2.2974 -5.59512
head 6.2004 -1.64567 -1.88502
rclavicle 6.78857e-014 6.5102e-015
rhumerus -50.9697 13.5021 -98.6088
rradius 79.4288
rwrist 21.4721
rhand -18.0337 1.77122
rfingers 7.12502
rthumb 8.23784 -28.0482
lclavicle 6.78857e-014 6.5102e-015
lhumerus 7.13582 -22.1252 69.7118
lradius 64.7928
lwrist -21.2102
lhand -22.8055 48.8241
lfingers 7.12502
lthumb 3.63092 -641.227
rfemur -19.9238 -7.10146 22.3952
rtibia 46.763
rfoot -22.9059 -15.1722
rtoes -11.4143
lfemur -36.4852 21.1077 -21.3013
ltibia 39.9483
lfoot -3.73458 6.16482
ltoes -1.03184
1186
root 2.38568 16.7438 2.20834 -1614.34 -125.682 1256.81
lowerback 175.337 -176.538 -177.01
upperback -1.03299 -4.77502 0.499075
thorax 1.34342 -2.3806 -1.42259
lowerneck -7.77857 -2.46063 -0.775729
upperneck 16.7135 -2.52155 -5.34635
head 6.29261 -1.76103 -1.77259
rclavicle -3.64902e-014 -1.635e-014
rhumerus -50.7602 13.8978 -99.0856
rradius 79.4893
rwrist 21.1109
rhand -18.4622 1.91279
rfingers 7.12502
rthumb 7.82427 -27.9224
lclavicle -3.64902e-014 -1.635e-014
lhumerus 8.60785 -20.8486 71.0424
lradius 62.2085
lwrist -24.2331
lhand -23.6721 47.4776
lfingers 7.12502
lthumb 2.79399 -642.561
rfemur -21.8146 -8.50799 21.4412
rtibia 50.1596
rfoot -21.4914 -13.8956
rtoes -13.5346
lfemur -36.0424 19.3422 -21.8933
ltibia 38.8641
lfoot -4.61589 5.03242
ltoes -6.60194
